mastitorrents.com
  
http://mastitorrents.com/forums/index.php
  
http://thepiratebay.se/user/HDvideos/0/7

Khiladi 786 (2012) - Hindi - DVDRip - XviD - 1CDRip - ESubs

Format                                   : AVI
Format/Info                              : Audio Video Interleave
File size                                : 695 MiB
Duration                                 : 2h 19mn
Overall bit rate                         : 695 Kbps
Writing library                          : VirtualDub build 24463/release

Video

Codec ID                                 : XVID
Codec ID/Hint                            : XviD
Duration                                 : 2h 19mn
Bit rate                                 : 562 Kbps
Width                                    : 688 pixels
Height                                   : 288 pixels
Display aspect ratio                     : 2.40:1
Frame rate                               : 23.976 fps
Color space                              : YUV
Chroma subsampling                       : 4:2:0
Bit depth                                : 8 bits
Scan type                                : Progressive
Compression mode                         : Lossy
Bits/(Pixel*Frame)                       : 0.118
Stream size                              : 562 MiB (81%)

Audio

Codec ID                                 : 2000
Duration                                 : 2h 19mn
Bit rate mode                            : Constant
Bit rate                                 : 128 Kbps
Channel(s)                               : 6 channels
Channel positions                        : Front: L C R, Side: L R, LFE
Sampling rate                            : 48.0 KHz
Bit depth                                : 16 bits
Compression mode                         : Lossy
Stream size                              : 128 MiB (18%)

Screens: 
http://img5.imageshack.us/img5/8839/coverptk.jpg 
http://foreverbilgisayar.com/dpi/image.php?id=CBCB_50EE074E&jpg 
http://foreverbilgisayar.com/dpi/image.php?id=66A4_50EE074E&jpg 
http://foreverbilgisayar.com/dpi/image.php?id=C9F4_50EE074E&jpg 
http://foreverbilgisayar.com/dpi/image.php?id=0E37_50EE074E&jpg 
http://foreverbilgisayar.com/dpi/image.php?id=BBBB_50EE074E&jpg 
http://foreverbilgisayar.com/dpi/image.php?id=542C_50EE074E&jpg 
http://foreverbilgisayar.com/dpi/image.php?id=F90A_50EE074E&jpg 
http://foreverbilgisayar.com/dpi/image.php?id=5B99_50EE074E&jpg 
http://foreverbilgisayar.com/dpi/image.php?id=19BA_50EE074E&jpg 
http://foreverbilgisayar.com/dpi/image.php?id=4F2F_50EE074E&jpg 
http://foreverbilgisayar.com/dpi/image.php?id=4D78_50EE074E&jpg 
http://foreverbilgisayar.com/dpi/image.php?id=DB1E_50EE074E&jpg 
http://foreverbilgisayar.com/dpi/image.php?id=E6C1_50EE074E&jpg 
http://foreverbilgisayar.com/dpi/image.php?id=6D72_50EE074E&jpg